<?xml version="1.0" encoding="UTF-8"?>
<svg id="Layer_1" data-name="Layer 1" xmlns="http://www.w3.org/2000/svg" version="1.1" viewBox="0 0 143.1 88.7">
  <defs>
    <style>
      .cls-1 {
        fill: #f1647c;
      }

      .cls-1, .cls-2, .cls-3, .cls-4, .cls-5, .cls-6, .cls-7, .cls-8, .cls-9, .cls-10, .cls-11, .cls-12, .cls-13, .cls-14, .cls-15, .cls-16, .cls-17, .cls-18, .cls-19, .cls-20, .cls-21, .cls-22, .cls-23, .cls-24, .cls-25, .cls-26, .cls-27, .cls-28, .cls-29, .cls-30, .cls-31, .cls-32, .cls-33, .cls-34, .cls-35 {
        stroke-width: 0px;
      }

      .cls-2 {
        fill: #f27085;
      }

      .cls-3 {
        fill: #f0526e;
      }

      .cls-4 {
        fill: #fac6d0;
      }

      .cls-5 {
        fill: #434445;
      }

      .cls-6 {
        fill: #040404;
      }

      .cls-7 {
        fill: #ef4460;
      }

      .cls-8 {
        fill: #f1687f;
      }

      .cls-9 {
        fill: #f1607b;
      }

      .cls-10 {
        fill: #4499d4;
      }

      .cls-11 {
        fill: #ef4b69;
      }

      .cls-12 {
        fill: #fbd8df;
      }

      .cls-13 {
        fill: #ef4444;
      }

      .cls-14 {
        fill: #f2728a;
      }

      .cls-15 {
        fill: #080808;
      }

      .cls-16 {
        fill: #f0536f;
      }

      .cls-17 {
        fill: #f1637c;
      }

      .cls-18 {
        fill: #f1647d;
      }

      .cls-19 {
        fill: #070707;
      }

      .cls-20 {
        fill: #f1667e;
      }

      .cls-21 {
        fill: #f6f3f4;
      }

      .cls-22 {
        fill: #f1627c;
      }

      .cls-23 {
        fill: #f1617b;
      }

      .cls-24 {
        fill: #060606;
      }

      .cls-25 {
        fill: #ef3f5d;
      }

      .cls-26 {
        fill: #f05470;
      }

      .cls-27 {
        fill: #ed1c24;
      }

      .cls-28 {
        fill: #f05c76;
      }

      .cls-29 {
        fill: #ef4763;
      }

      .cls-30 {
        fill: #f05671;
      }

      .cls-31 {
        fill: #ef4a68;
      }

      .cls-32 {
        fill: #f0526d;
      }

      .cls-33 {
        fill: #f04c69;
      }

      .cls-34 {
        fill: #030303;
      }

      .cls-35 {
        fill: #f15f7a;
      }
    </style>
  </defs>
  <path class="cls-6" d="M52.2-.8h.6c2.5,0,5,.2,7.5.3.7,0,1.3,0,1.9.1,1.6.1,2.8.2,3.5.2.4,0,.9,0,1.3,0,.1,0,.2,0,.3,0,.3,0,.6,0,.9,0,.8.1,1.2.4,1.7.9.2.3.3.6.3.9-.3.8-.8,1.4-1.5,1.8-1.1.2-2.2.2-3.3.2h-1.2c-.6,0-1.3-.1-1.9-.2v13.7c1.9-.1,3.9-.2,5.9-.3,1.2,0,2.3-.1,3.5-.2.3,0,.6,0,.9,0,.8,0,1.6,0,2.4-.1.8,0,1.7,0,2.6-.1,1.4,0,2.8-.1,4.3-.2,1.6,0,3.3-.1,4.9-.2,1.4,0,2.8-.1,4.2-.2.8,0,1.7,0,2.5-.1.8,0,1.6,0,2.4-.1.3,0,.6,0,.9,0,1.5,0,3-.1,4.5-.1,0-.2,0-.4,0-.6,0-.9,0-1.7.5-2.5.8-.7,1.6-1,2.7-1.4.1,0,.3,0,.4-.1.3-.1.7-.2,1-.3,0-.9.1-1.8.2-2.8l-.5.2c-1.7.1-3.7.2-5-1,.2-.6.5-.9,1.1-1.2.8-.3,1.7-.2,2.6-.2h3c1,0,2.1,0,3.1,0h1.1c1.2,0,2.2,0,3.3-.6.2,0,.4-.2.6-.2s.4-.2.6-.2c4.2-1.7,9.1-1.2,13.5,0,0,.3.1.5.2.8-.8.3-1.5.4-2.3.4-.1,0-.3,0-.4,0-.9,0-1.8,0-2.8,0h-.4c-.5,0-1.1,0-1.6,0-2.2,0-4.4,0-6.3,1.2-1.8.9-3.5,1-5.4.9,0,.2,0,.4,0,.5,0,.2,0,.5,0,.7,0,.1,0,.2,0,.4,0,.1,0,.2,0,.3,0,.1,0,.2,0,.3,0,.4,0,.9,0,1.3h.4c1.4,0,2.8,0,4.1,0h6.7c.3,0,.7.1,1,.4.2,1-.2,1.9-.6,2.8,0,.1-.1.3-.2.5-.4.9-.8,1.8-1.5,2.4-.4.2-.8.2-1.3.2h-2.1c.2-.6.3-.6.9-.9.2,0,.5-.2.7-.2.6-.2,1.1-.5,1.6-.8,0-.6-.1-1.2-.2-1.8h-13c.4,1.9.9,3.9,1.3,5.8.3,1.2.5,2.4.8,3.5,0,.1,0,.3,0,.4.2.8.3,1.5.5,2.3.1.6.3,1.2.4,1.9.2.8.3,1.5.5,2.3,0,.3.1.6.2.9,0,.4.2.8.3,1.2,0,.1,0,.2,0,.3.2.8.2,1.5.2,2.3-.7.2-1.3.3-2,.5-.2,0-.4,0-.6.2-.2,0-.4,0-.6.1-.2,0-.3,0-.5.1-.3,0-.6,0-.9,0-.5-1.8-.9-3.7-1.3-5.5-.6,0-.8.2-1.3.5-.2,0-.3.2-.5.3-.2.1-.4.2-.5.3s-.4.2-.6.4c-.6.4-1.1.7-1.7,1.1-.3.2-.6.4-1,.6-.5.3-.9.6-1.4.9-1.3.9-2.7,1.7-4,2.6-1.5.9-2.9,1.9-4.4,2.8-1.7,1.1-3.4,2.2-5.1,3.3-1.7,1.1-3.3,2.1-4.9,3.2-.8.5-1.6,1.1-2.5,1.6-.5.3-.9.6-1.3.9-.7.5-1.4.9-2.1,1.3-.1,0-.3.2-.4.3-.4.3-.8.5-1.3.8-.1,0-.3.2-.4.3-.1,0-.2.2-.4.2-.1,0-.2.2-.3.2-.2.1-.3.2-.6.2-.4-.9-.8-1.8-1.1-2.7-.1-.3-.3-.6-.4-.9-.2-.4-.4-.9-.6-1.3,0-.1-.1-.3-.2-.4-.2-.5-.4-1-.4-1.6.2-.4.4-.5.8-.8.1,0,.3-.2.4-.2.2,0,.3-.2.4-.2.3-.2.6-.3.9-.5.2,0,.3-.2.5-.3.7-.4,1.3-.8,1.9-1.2.3-.2.5-.3.8-.5.1,0,.3-.2.4-.3.8-.5,1.6-1,2.4-1.5.2,0,.3-.2.5-.3,1.2-.8,2.4-1.5,3.6-2.2,1.1-.7,2.1-1.3,3.2-2,1.4-.9,2.8-1.7,4.1-2.5.5-.3,1.1-.7,1.6-1,.4-.2.7-.4,1.1-.7.5-.3,1.1-.6,1.6-1,.2-.1.3-.2.5-.3,1.4-.9,2.8-1.8,3.3-3.4.3-1.5,0-3.1-.6-4.6-1-1.2-2.4-1.9-3.9-2.3-.4,0-.8,0-1.2,0h-.3c-1.4,0-2.8,0-4.2.1-.3,0-.6,0-.9,0-.6,0-1.2,0-1.8,0-.6,0-1.2,0-1.9,0-2.9.1-5.7.3-8.6.5-.2,0-.3,0-.5,0-1.8.1-3.1.9-4.3,2.2-.3.4-.7.8-1,1.2-.2.3-.5.6-.8.9-3.3,4-3.6,8-3.7,13.1,0,.4,0,.7,0,1.1,0,.9,0,1.8,0,2.6-.2,0-.5,0-.7,0-.1,0-.3,0-.4,0-1.9.2-3.2,0-3.9-.5-1.2-1.2-1.9-2.8-2.6-4.3,0-.1-.1-.3-.2-.4-.2-.6-.2-1.3-.2-1.9,0-.1,0-.3,0-.4,0-.3,0-.7,0-1-1.5.5-2.2,1.4-3.1,2.6-.2.3-.5.6-.7.9-.1.2-.2.3-.4.4-.5.6-1,1.2-1.5,1.8-.4.4-.7.9-1.1,1.3-.1.2-.3.3-.4.5-.1.2-.2.3-.3.4-.2.2-.5.3-1,.3-.2-.1-.4-.3-.6-.4,0,0-.2-.2-.3-.3,0,0-.2-.2-.3-.3s-.2-.2-.3-.3c-.3-.2-.5-.5-.8-.7.3-.5.6-1,1-1.5.1-.2.3-.3.4-.5.1-.2.3-.3.4-.5.2-.3.5-.6.7-.9.7-.8,1.3-1.6,2-2.4.6-.7,1.2-1.5,1.8-2.2,1.2-1.4,2.5-2,4.2-2.5h.5v-.3c0-2.7,0-5.5,0-8.2s0-2.6,0-4c0-1.1,0-2.3,0-3.5v-1.8c0-2.6,0-5,.5-7.6-.1,0-.2,0-.4.1-.5.2-1,.3-1.5.5l-.5.2c-.2,0-.3,0-.5.2-.2,0-.3,0-.5.2-.4,0-.7,0-1.1,0-.3-.3-.5-.7-.7-1,0,0-.1-.2-.2-.3-.6-1.1-.8-2-.6-3.2.9-1.1,1.8-1,3.1-1Z"/>
  <path class="cls-24" d="M114.7,31h.3c7.4,0,14.2,3.1,19.6,8.2.1.1.3.3.4.4,4.7,4.5,7.8,11.5,8.1,17.9.1,8.7-2.2,16.3-8.3,22.6-.1.1-.2.3-.4.4-4.9,5.2-12.2,7.9-19.2,8.1-7.7.2-15.1-2.5-20.8-7.8-.2-.2-.4-.3-.6-.5-.6-.5-1.1-1.1-1.7-1.8,0,0-.1-.2-.2-.2-1.2-1.4-2.2-2.9-3.1-4.5,0,0-.1-.2-.2-.3-3.7-6.8-4.3-14.8-2.2-22.2,1.4-4.6,3.8-8.6,7.2-12.1.1-.2.3-.3.4-.4,2.5-2.6,6.3-5.2,9.9-6.1.3,0,.5.1.8.2.3,1.4.7,2.8,1,4.2-.9.4-1.5.8-1.9,1-5.5,2.7-9.5,6.5-12.1,12.1-.1.3-.2.5-.4.8-2,4.4-2.3,10.5-.9,15.1,0,.1,0,.3.1.4,2,6.5,6.3,11.6,12.3,14.8,2.9,1.5,6.2,2.5,9.5,2.5h.4c7,0,13.3-1.7,18.5-6.7.1-.2.3-.3.4-.4.2-.2.4-.4.6-.6,3.7-3.4,6.1-9.2,6.3-14.1.1-5.8-.8-11.3-4.4-16,0-.1-.2-.3-.3-.4-1.3-1.7-2.7-3.2-4.4-4.5,0,0-.2-.1-.3-.2-1.4-1.1-3-2-4.6-2.7,0,0-.2,0-.3-.1-1.6-.7-3.3-1.2-5.1-1.7-.1,0-.2,0-.4,0-1.5-.3-3-.3-4.5-.3-.3,0-.6,0-.8,0-.7,0-1.4,0-2.1,0-.2-.8-.4-1.6-.7-2.4,0-.2,0-.3-.1-.4-.2-.5-.2-1-.2-1.5,1.4-.3,2.8-.4,4.2-.4h0Z"/>
  <path class="cls-6" d="M45.4,36.3c-.7.9-1.4,1.8-2.1,2.7-.2.3-.4.6-.7.9-.7,0-1.2-.4-1.8-.8-1.7-1-3.5-1.7-5.4-2.3-.2,0-.3,0-.5-.2-2-.6-4.1-.8-6.2-.8h-1.1c-1.4,0-2.8,0-4.2.4-.1,0-.2,0-.4,0-4.4.9-8.2,2.9-11.5,6-.2.2-.5.3-.8.5-.1.2-.2.4-.3.7-.2.2-.3.3-.5.5-2.7,2.6-4.5,6.5-5.4,10.1,0,.1,0,.2,0,.3-1.5,5.9-.4,12.3,2.6,17.6,1,1.7,2.2,3.1,3.5,4.5.1.1.2.3.4.4,3.2,3.4,7.8,5.6,12.3,6.6.1,0,.3,0,.4,0,1.4.3,2.7.3,4.1.3h1.1c2.1,0,4.1-.2,6.1-.8.2,0,.3,0,.4-.1,5.8-1.7,10.5-5.3,13.8-10.3.2-.3.3-.5.5-.8,1.4-2.2,2.2-4.9,2.8-7.5,1,.3,1.9.7,2.8,1,.1,0,.2,0,.4.1.5.2.9.5,1,.8,0,.6-.1,1.1-.3,1.7,0,.1,0,.2,0,.4-1.7,6.7-6.5,12.5-12.4,16-4.7,2.8-9.7,4.3-15.2,4.3h-.4c-1.9,0-3.8,0-5.6-.5-.1,0-.3,0-.4,0-1.9-.5-3.7-1.1-5.4-1.8-.1,0-.2,0-.3-.1-6.9-3.1-12.3-9.1-14.9-16.2-.4-1.1-.7-2.2-1-3.3,0-.1,0-.2-.1-.4-.5-2.1-.7-4.2-.6-6.4v-.4c0-1.9,0-3.8.5-5.7,0-.1,0-.3.1-.4,1.1-4.7,3.3-9.2,6.6-12.7.3-.3.6-.7.9-1,2.9-3.3,7-5.7,11.2-7.2.1,0,.2,0,.3-.1.8-.3,1.6-.5,2.4-.7.1,0,.3,0,.4-.1,7.8-1.8,16.6-.3,23,4.6h0Z"/>
  <path class="cls-34" d="M64.4,45.2c2.3,1.8,3.8,4.2,4.3,7.1.3,3.1-.4,5.8-2.1,8.4-.4,0-.6-.1-.9-.4,0,0-.1-.2-.2-.3,0,0-.2-.2-.2-.3,0-.1-.2-.2-.2-.3-.2-.2-.3-.5-.5-.7,0-.1-.2-.2-.3-.4-.5-.7-1-1.3-1.5-1.9-.4-.5-.8-1-1.2-1.5-1-1.4-2.2-2.5-3.6-3.3-.9,0-1.1,0-1.8.6-.4.7-.6,1.1-.4,1.9.5,2.1,2.2,3.8,3.5,5.5.6.7,1.2,1.5,1.7,2.2.2.3.4.5.6.8,0,.1.2.2.3.4,0,0,.2.2.2.3,0,0,0,.2.2.3l-.2.5c-2.4,1.1-5.1,1.1-7.6.3-.6-.2-1.2-.5-1.8-.8,0-.1,0-.2,0-.4.5-5.3-.4-10-2.8-14.8-.2-.3-.3-.6-.3-1,.9-1.7,3.1-2.8,4.8-3.4,3.4-1,7-.7,10,1.3h0Z"/>
  <path class="cls-11" d="M48,49.6h.5c.5,1.8.7,3.6.8,5.5,0,.2,0,.3,0,.4,0,.8.1,1.6.2,2.4.2,1.9.3,3.8.5,5.7,0,.4,0,.8,0,1.1,0,.9.2,1.8.2,2.7,0-.1,0-.2,0-.4.4-4.2,1.1-6.7,1.9-7.6h.5c0,.4-.1.6-.4.9-1.5,1.5-1.2,5.5-1.3,7.5,0,.2,0,.3,0,.5,0,.3,0,.6,0,.9,0,.1,0,.3,0,.4,0,.1,0,.2,0,.3,0,.4-.3.5-.6.8-1-1-.8-3.7-.9-5.2,0-.3,0-.5,0-.8,0-.7-.1-1.4-.2-2s-.1-1.4-.2-2c0-.1,0-.3,0-.4,0-.4,0-.8,0-1.2,0-.1,0-.3,0-.4-.1-1.6-.2-3.2-.4-4.8v-.5c0-.1,0-.3,0-.4,0-.1,0-.2,0-.3,0-.3-.1-.7-.2-1,0,.2,0,.4,0,.6,0,.8,0,1.6-.2,2.3,0,.3,0,.7,0,1-.1,1.7-.2,3.3-.4,5,0,.1,0,.2,0,.4,0,.5-.1,1-.3,1.5h-.7c0-.2,0-.3,0-.5-.1-.7-.4-1.4-.8-2-.2,0-.5-.2-.8-.2-.1-.2-.2-.3-.3-.5,0,.1-.2.3-.3.4-.3.3-.6.4-.9.5-.2,0-.4,0-.6,0h-.6c-.3,0-.7,0-1,0h-1c-.2,0-.4,0-.6,0-.4,0-.7.2-.9.6-.2.4-.4.8-.5,1.2,0,.1,0,.3,0,.4,0,.3-.1.5-.2.8,0,.1,0,.3,0,.4,0,.1,0,.2,0,.3-.2.4-.4.5-.8.6-.4-.6-.4-1.2-.5-1.9,0-.2,0-.3,0-.4,0-.4-.1-.9-.2-1.3s-.1-.9-.2-1.3c0-.3,0-.5,0-.8,0-.5-.1-1-.3-1.5,0,.1,0,.3,0,.4-.3,1.2-.7,2.1-1.2,2.5-.2,0-.4,0-.6,0-.4.1-.6.3-.8.6-.7,2.2-.8,4.6-1,6.9,0,1-.2,2-.5,3h-.5c-.4-1.2-.5-2.4-.6-3.6,0-.2,0-.5,0-.7-.2-2.6-.4-5.2-.6-7.7,0-.8-.1-1.6-.2-2.5,0-.3,0-.7,0-1,0-.2,0-.4,0-.6,0-.2,0-.3,0-.5,0-.5-.1-1-.2-1.5-.5,1.9-.5,3.9-.6,5.9,0,.5,0,1,0,1.4,0,.2,0,.3,0,.4,0,.8-.2,1.5-.4,2.3-.2,0-.4-.1-.6-.2,0-.2,0-.3-.1-.5,0-.2-.1-.4-.1-.6,0-.2,0-.4-.1-.6-.1-.4-.4-.6-.9-.8-.2,0-.4,0-.5,0,0-.2-.1-.4-.2-.7h-.3c0,0,0,.2,0,.3-.1.2-.2.4-.3.5-.3,0-.7,0-1,0-.2,0-.4,0-.6,0-.3,0-.7,0-1,0s-.6,0-1,0h-.6c-.4,0-.7.2-.9.5-.3.5-.5.9-.6,1.5,0,.2-.1.4-.2.5,0,.3-.2.6-.2.9-.1.5-.3.8-.6,1-.1,0-.2,0-.3,0-.2-.4-.4-.8-.4-1.3,0-.1,0-.3,0-.4,0-.1,0-.3,0-.4,0-.2,0-.3,0-.4,0-.4-.1-.9-.2-1.3s-.1-.9-.2-1.3c0-.3,0-.5-.1-.8,0-.4-.1-.8-.3-1.1,0,.1,0,.2,0,.4-.3,1.1-.6,1.9-1.1,2.2-.2,0-.4.2-.7.2-.3.1-.6.3-.9.6,0,.2,0,.3-.1.5,0,.1,0,.2,0,.3-.5,2-.6,4.2-.8,6.3,0,.9-.1,1.8-.3,2.7-.2,0-.4.1-.6.2-.3-.9-.4-1.8-.5-2.8,0-.2,0-.3,0-.5,0-.5,0-1-.1-1.5,0-.4,0-.7,0-1.1-.2-1.9-.3-3.8-.4-5.8-.2-2.4-.4-4.7-.6-7.1,0,.2,0,.3,0,.5-.1,1.4-.2,2.8-.4,4.1,0,.8-.1,1.5-.2,2.2,0,.3,0,.6,0,.9,0,.1,0,.3,0,.4,0,.9-.2,1.7-.4,2.6-.2,0-.4-.1-.6-.2,0-.2,0-.3,0-.4,0-.7-.3-1.3-.7-1.9-.3,0-.6-.2-.9-.3-.2-.2-.4-.5-.5-.7,0,.1,0,.3-.2.4-.2.3-.5.4-.8.5-.4,0-.8,0-1.2,0,0-.2-.1-.3-.2-.5h1.6c.1-.5.2-1,.3-1.5h.7c0,0,0,.2.1.3.2.5.6.9,1,1.2.2,0,.3,0,.5.1.2.2.3.4.5.7.2-2.2.4-4.4.5-6.5.1-2.3.4-3.8.8-4.3h.3c.3.5.4.9.4,1.4,0,.2,0,.3,0,.5,0,.2,0,.3,0,.5,0,.2,0,.4,0,.5.3,2.7.5,5.5.7,8.2,0,.8.1,1.5.2,2.2.1,1.5.2,2.9.3,4.4,0-.4.1-.7.2-1.1,0-.2,0-.4,0-.6,0-.4.1-.8.2-1.2.3-2.4.7-3.9,1.2-4.5.2,0,.5-.2.8-.2.1,0,.3,0,.4,0,.1,0,.2,0,.3,0,0-.2,0-.4.1-.6,0-.2.1-.5.2-.8,0-.1,0-.2,0-.4.2-.8.4-1.5.8-2.2h.5c.3.5.4,1,.5,1.6,0,.2,0,.4,0,.6s0,.4,0,.6c0,.2,0,.4,0,.6.1,1,.3,2.1.4,3.2,0,.2,0,.4.2.5,0-.1.1-.3.2-.4,0-.2.1-.4.2-.6,0-.2.1-.4.2-.6.3-.6.6-1.2,1.2-1.5.3,0,.7,0,1,0,.2,0,.4,0,.6,0s.4,0,.6,0,.4,0,.6,0c.5,0,1.1,0,1.6,0,.2-.4.3-.9.5-1.3.2,0,.4.1.6.2,0,.2.1.4.2.5.1.2.2.4.3.6.4.1.8.2,1.1.3.2.2.3.4.5.7,0,0,0-.2,0-.3,0-1.1.2-2.2.2-3.2,0-.5,0-1,.1-1.5,0-.7.1-1.3.2-2,0-.3,0-.5,0-.8,0-.4,0-.8,0-1.1,0-.1,0-.2,0-.3,0-.6.1-1,.4-1.5l.6.2c.4,2.5.6,5.1.9,7.7,0,.7.1,1.3.2,1.9.2,1.9.3,3.8.4,5.7,0,.7.1,1.4.2,2.1.2-1,.3-2.1.4-3.1.3-2.4.8-3.9,1.5-4.5.2,0,.4,0,.6-.1.4,0,.6-.2.7-.5.3-.8.4-1.7.5-2.6,0-.3.2-.6.4-.9.2,0,.4.2.7.3.1.4.2.8.3,1.2,0,.1,0,.2,0,.4.2,1.3.4,2.6.5,3.9,0,.2,0,.3,0,.5,0,.2,0,.3,0,.4,0,.2,0,.4.2.5,0,0,0-.2,0-.3.3-1.2.7-2.3,1.7-2.9.3,0,.7,0,1,0,.2,0,.4,0,.6,0s.4,0,.7,0,.4,0,.7,0c.5,0,1.1,0,1.6,0,.1-.4.2-.8.3-1.1.2,0,.4-.1.7-.2.3.7.5,1.2.5,1.5.2,0,.3,0,.5,0,.7.2.8.4,1.3.9,0-.2,0-.4,0-.6,0-.8,0-1.6.2-2.3,0-.3,0-.7,0-1,.1-1.7.2-3.3.4-5v-.4c.1-.6.2-1.1.5-1.6h0Z"/>
  <path class="cls-15" d="M56.7,52.2c.3,0,.6,0,.9,0s.3,0,.5,0c1.4.3,2.2,1,3,2.1,0,.1.2.3.3.4.3.4.6.8.8,1.1.2.3.5.6.7.9.1.2.2.3.3.5.5.8,1.1,1.5,1.7,2.2.9,1.1,1.7,2.3,2.6,3.4.7.9,1.4,1.9,2.1,2.8,0,.1.2.2.2.3,0,0,.2.2.2.3.2.2.3.4.4.6.4.7.8,1,1.6,1.3.5,0,1,0,1.5.1.1,0,.3,0,.4,0,.3,0,.7,0,1,0,0,.2.1.4.2.7-.2.2-.4.4-.6.6,0,0-.2.2-.3.3-.9.6-2.2.5-3.2.5h-2.6c-2.5,0-4-.3-4.6-.9-.3-.5-.4-.6-.4-1.2.2-.6.4-1,.7-1.5.5.2.9.5,1.3.9.1,0,.2.2.3.3s.2.2.3.2c0-.4-.2-.6-.4-.9,0-.1-.2-.2-.3-.4s-.2-.3-.3-.4c0-.2-.2-.3-.3-.4-.8-1-1.6-2.1-2.4-3.1-.8-1-1.6-2.1-2.4-3.2-.5-.7-1-1.3-1.5-2,0-.1-.2-.2-.3-.4-.2-.2-.4-.5-.5-.7-.7-.9-1.2-1.6-1.2-2.8,0-.2,0-.3,0-.5,0-.4.2-.9.3-1.3h0Z"/>
  <path class="cls-19" d="M48.8,39.2h.5c.2.2.4.5.7.8.6.8,1.3,1.5,2,2.3.2.2.3.6.3,1-.1.2-.3.3-.5.5-.6.5-1.2,1.1-1.8,1.6-.2.2-.3.3-.5.5-.1.1-.3.2-.4.4-.7-.2-.9-.7-1.4-1.2-.2-.2-.3-.4-.5-.6,0,0-.2-.2-.2-.3-.3-.4-.7-.8-1-1.3.3-.4.7-.8,1-1.3.3-.3.5-.7.8-1,.1-.2.3-.3.4-.5.1-.2.2-.3.4-.5,0-.1.2-.2.3-.3Z"/>
  <path class="cls-21" d="M52.9,58.3h.2c0,4.1-.5,7.7-2.1,11.5h-.2c.3-5.8.9-9.1,1.7-9.9.3-.3.3-.6.3-1,0-.1,0-.3,0-.4,0-.1,0-.2,0-.3Z"/>
  <path class="cls-30" d="M9.3,57h.5c-.1,3.4-.3,5.4-.6,6-.2,0-.4-.1-.6-.2,0-.2,0-.3,0-.4,0-.7-.3-1.3-.7-1.9-.3,0-.6-.2-.9-.3-.2-.2-.4-.5-.5-.7,0,.1,0,.3-.2.4-.2.3-.5.4-.8.5-.4,0-.8,0-1.2,0,0-.2-.1-.3-.2-.5h1.6c.1-.5.2-1,.3-1.5h.7c0,0,0,.2.1.3.2.5.6.9,1,1.2.2,0,.3,0,.5.1.2.2.4.4.5.7,0,0,0-.2,0-.3,0-.5,0-.9.1-1.4,0-.2,0-.3,0-.5,0-.2,0-.3,0-.5,0-.2,0-.3,0-.4,0-.2,0-.5.2-.7h0Z"/>
  <path class="cls-22" d="M9.3,57h.5c-.1,3.4-.3,5.4-.6,6-.2,0-.4-.1-.6-.2,0-.3-.1-.5-.2-.8.2-.1.3-.2.5-.3,0-.1,0-.3-.1-.4,0-.1,0-.3,0-.4,0,0,.1-.1.2-.2,0-.2,0-.5,0-.8,0-.2,0-.3,0-.5,0-.2,0-.3,0-.5,0-.3,0-.6,0-.9,0-.2,0-.3,0-.4,0-.2.1-.5.2-.7h0Z"/>
  <path class="cls-17" d="M49.2,55.2h.2v.4c0,.5.1,1.1.2,1.6,0,.2,0,.4,0,.6,0,.9.1,1.8.2,2.6,0,.6,0,1.2,0,1.8v.8h-.5c0-.9-.2-1.8-.3-2.7,0-.3,0-.7-.1-1-.2-1.4,0-2.7.2-4.1Z"/>
  <path class="cls-28" d="M47,58.7c.4.4.4.6.5,1.1,0,.4,0,.7,0,1.1,0,.2,0,.4,0,.5,0,.4-.1.8-.2,1.2h-.7c0-.2,0-.3-.1-.5,0-.2-.1-.4-.2-.6,0-.1,0-.2,0-.3-.1-.4-.2-.8-.4-1.2h.3c0-.1.1-.2.2-.3.2.3.4.5.7.8,0-.6.1-1.2.2-1.8h0Z"/>
  <path class="cls-9" d="M52.7,59.6c0,.4-.2.7-.4.9-.3.4-.4.7-.5,1.2,0,.2,0,.3-.1.5,0,.1,0,.2,0,.4h-.5c0-.9.2-1.6.7-2.4.3-.3.6-.5,1-.5h0Z"/>
  <path class="cls-1" d="M15.5,59.2c.2,0,.4.1.6.2-.5.7-.9.9-1.7,1.2-.2,0-.4.2-.6.4-.2,0-.3.1-.5.2.2-.7.5-1.1.8-1.3.4,0,.8-.1,1.1-.2,0-.2.1-.3.2-.5h0Z"/>
  <path class="cls-32" d="M28.2,59.1h.5c0,.9-.1,1.7-.2,2.6,0-.2-.1-.3-.2-.5l-.6.3c0-.4.1-.8.1-1.1,0-.2,0-.4,0-.6,0-.3.2-.6.3-.7h0Z"/>
  <path class="cls-29" d="M27.4,61.2h1c0,.7,0,1.3-.2,1.6-.2,0-.4-.1-.6-.2,0-.5-.1-1-.2-1.5h0Z"/>
  <path class="cls-16" d="M20.6,59.8c.1,0,.3,0,.4.1v.3c-.1,0-.3,0-.5.1-.5.2-.7.4-1,.8l-.3.5v-.3h-.3c.1-.6.3-.9.7-1.4.3-.2.6-.2,1-.2h0Z"/>
  <path class="cls-14" d="M9.3,57h.5c0,1.1-.1,2.3-.2,3.4h-.2c0,0,0-.2,0-.3,0-.1,0-.3,0-.4,0-.1,0-.3,0-.4,0-.2,0-.5-.2-.7,0-.2,0-.4,0-.7v-.3c0-.2,0-.4.2-.6h0Z"/>
  <path class="cls-20" d="M49.2,55.2h.2c0,1.1.1,2.3.2,3.4-.2,0-.3-.1-.5-.2-.2-.7-.1-1.3,0-2.1,0-.1,0-.2,0-.3,0-.3,0-.5.1-.8h0Z"/>
  <path class="cls-7" d="M9.2,58.6c.2.2.3.4.4.7,0,.9-.1,1.6-.4,2.1h-.2c0-1.2,0-2.2.2-2.8Z"/>
  <path class="cls-20" d="M30.1,60.2c.7.9.7,1.2.6,2.3-.1-.2-.2-.4-.3-.7-.1.2-.2.4-.3.7v-2.3h0Z"/>
  <path class="cls-3" d="M26.7,59.9h.6c.3.5.3.7.3,1.3h-.3c0,.1-.1.2-.2.3,0-.2-.1-.4-.1-.5-.1-.4-.2-.7-.3-1.1Z"/>
  <path class="cls-4" d="M48.2,51.3h.2c0,.7.1,1.4.2,2.1-.2,0-.3.1-.5.2,0-.3,0-.6,0-.9v-.5c0-.3,0-.6.2-.9h0Z"/>
  <path class="cls-33" d="M8.2,60.4h.3c0,.2,0,.4,0,.5s0,.4.1.6c.1,0,.2.1.3.2l-.6.3c0-.5-.1-1.1-.2-1.6h0Z"/>
  <path class="cls-8" d="M24.8,58.9c0,.1.1.2.2.3.2,0,.4.1.6.2h-.3c0,0,0,.2,0,.3,0,.1,0,.2-.1.3-.2,0-.3.1-.5.2,0-.4.1-.9.2-1.3h0Z"/>
  <path class="cls-25" d="M10.9,58.3c.2,0,.3.1.5.2,0,.4,0,.7,0,1.1-.1.1-.2.2-.3.3-.2-.6-.2-1-.2-1.6Z"/>
  <path class="cls-33" d="M25.1,58.3l.6.2v.7c-.3,0-.5.1-.8.2,0-.3.1-.7.2-1h0Z"/>
  <path class="cls-18" d="M9.3,57h.5c0,.5-.1,1-.2,1.5-.1,0-.2-.1-.3-.2v-1.3Z"/>
  <path class="cls-16" d="M33.2,59.7c.1,0,.2.1.3.2-.1.3-.3.6-.5,1-.2.1-.5.2-.7.2.2-.5.4-.9.8-1.3Z"/>
  <path class="cls-12" d="M12.1,66.6h.5c0,.7-.1,1.3-.2,1.9h-.2c0-.7-.1-1.3-.2-1.9h0Z"/>
  <path class="cls-26" d="M13.7,60.9c.2.6.1,1,0,1.6-.2-.1-.3-.3-.5-.5,0-.5.1-.8.5-1.1Z"/>
  <path class="cls-20" d="M15.5,59.2c.2,0,.4.1.6.2-.3.3-.5.5-.8.8v-.3c-.1,0-.2-.1-.3-.2h.3c0-.2.1-.3.2-.5h0Z"/>
  <path class="cls-25" d="M49.2,58.3c.2.2.3.5.3.9,0,.2,0,.4,0,.5-.2-.1-.3-.3-.5-.5,0-.3,0-.5,0-.8l.2-.2h0Z"/>
  <path class="cls-2" d="M27.9,60.5l.6.2v1c0-.2-.1-.3-.2-.5l-.6.3c0-.3.1-.7.2-1Z"/>
  <path class="cls-23" d="M19.2,60.4c0,.1.1.2.2.3.1,0,.2.1.3.2-.1.3-.2.5-.3.8,0-.1-.1-.2-.2-.3h-.3c.1-.3.2-.7.3-1h0Z"/>
  <path class="cls-35" d="M26.1,59.6l1,.2-.3.2v.3h-.8c0-.1-.1-.2-.2-.3h.3v-.3h0Z"/>
  <path class="cls-31" d="M14.5,59.9c.3,0,.6,0,.8,0,0,.2-.1.3-.2.5h-1c.1-.2.2-.3.3-.5Z"/>
  <path class="cls-10" d="M113.4,48.5h-.7c-1.1,0-1.9-.9-1.9-2v-7.6c0-1.1.9-2,1.9-2h.7c1.1,0,1.9.9,1.9,2v7.6c0,1.1-.9,2-1.9,2Z"/>
  <circle class="cls-5" cx="115.4" cy="73.6" r="4.4"/>
  <path class="cls-10" d="M120.3,49.9l-.6-.2c-1-.4-1.6-1.5-1.2-2.5l2.6-7.2c.4-1,1.5-1.5,2.5-1.2l.6.2c1,.4,1.6,1.5,1.2,2.5l-2.6,7.2c-.3,1-1.5,1.5-2.5,1.2Z"/>
  <path class="cls-10" d="M125.5,54.4l-.5-.4c-.8-.7-.8-2,0-2.8l5.2-5.5c.7-.8,2-.8,2.8,0l.5.4c.8.7.8,2,0,2.8l-5.2,5.5c-.7.8-2,.8-2.8,0h0Z"/>
  <path class="cls-13" d="M127.5,59.5l-.2-.6c-.4-1,0-2.2,1-2.5l7-3c1-.4,2.1,0,2.6,1l.2.6c.4,1,0,2.2-1,2.5l-7,3c-1,.4-2.2,0-2.6-1Z"/>
  <path class="cls-10" d="M107.8,50.7l-.6.3c-.9.5-2.1.2-2.7-.7l-3.8-6.6c-.5-.9-.2-2.1.7-2.7l.6-.3c.9-.5,2.1-.2,2.7.7l3.8,6.6c.5.9.2,2.1-.7,2.7Z"/>
  <path class="cls-10" d="M103.3,55.3l-.4.5c-.6.9-1.8,1.1-2.7.4l-6.2-4.5c-.9-.6-1.1-1.8-.4-2.7l.4-.5c.6-.9,1.8-1.1,2.7-.4l6.2,4.5c.9.6,1.1,1.8.4,2.7Z"/>
  <path class="cls-10" d="M101.5,63l-.3.6c-.5,1-1.7,1.4-2.6.9l-6.8-3.5c-1-.5-1.3-1.7-.9-2.6l.3-.6c.5-1,1.7-1.3,2.6-.9l6.8,3.5c1,.5,1.3,1.7.9,2.6Z"/>
  <path class="cls-27" d="M116.2,74.6h0c-1.1.7-2.5.3-3.2-.8,0,0-8.4-14.4-11.4-20-.7-1.2-1-2-1-2.2.2-.5.5-1,.9-1.3h0c.5-.3,1.2-.4,1.7-.3.6.2,13.6,21.2,13.6,21.2.7,1.1.4,2.7-.7,3.3Z"/>
  <path class="cls-27" d="M100.7,51.9s-1.6-3.6-.8-4.6c.9-1,3.6,3,3.6,3l-2.8,1.6h0Z"/>
  <path class="cls-13" d="M127,65.3v-.6c-.3-1.1.5-2.1,1.5-2.2l7.6-1.2c1.1-.2,2.1.5,2.2,1.6v.6c.3,1.1-.4,2.1-1.5,2.2l-7.6,1.2c-1.1.2-2.1-.6-2.2-1.6Z"/>
</svg>